<svg id="图层_1" data-name="图层 1" xmlns="http://www.w3.org/2000/svg" viewBox="0 0 595.28 841.89"><defs><style>.cls-1{fill:#fff;}</style></defs><title>liufang</title><g id="_8ipOKG.tif" data-name="8ipOKG.tif"><path class="cls-1" d="M287.39,768.89l-10.18-1.17c-68.46-7.9-120.63-41.47-156.64-100.07-14.63-23.82-23.25-49.92-27-77.59-2.32-17.1-2.16-34.27-.85-51.48a238.4,238.4,0,0,1,16.35-71.42c13.94-34.54,34.51-64.76,60.39-91.4,13.63-14,27.74-27.6,41.23-41.77,12.31-12.92,22.25-27.46,27.51-44.8,4.13-13.62,4.71-27.61,4.58-41.7-.07-8.83,0-17.66,0-27.13A79.92,79.92,0,0,1,264.7,252c4.71,12.23,5.84,25,5.05,38.06a195.5,195.5,0,0,0,44.19-104.5c4.39-39.24-2.44-76.65-20-112.6,1.17.5,2,.75,2.68,1.15,51.84,29,85.12,72.24,95.79,130.69,12.31,67.4-7.37,125.5-57.22,172.74-18.62,17.64-41,29.55-64.79,38.93-16,6.3-31.81,13-46.06,22.79-36.67,25.2-60.1,59.21-67.12,103.51-4.95,31.24-2.32,61.9,11.88,90.62,13.88,28.08,36.2,47.9,64,61.69C257,707,282.35,712.45,308.8,709.76c59.69-6.06,101.43-37.21,125.42-92.2,10.83-36.38-11.68-65.41-40.8-70.07A50.91,50.91,0,0,0,355.58,556c-14.69,10-26.46,22.48-33.62,39-.11.24-.35.42-1.27.51,1.21-9.38,2-18.83,3.73-28.11,4.06-21.81,14.21-41,25.92-59.59,8-12.7,16.12-25.4,23.18-38.63,11.78-22.08,14.47-46.08,12.59-70.7-.57-7.42-1.74-14.79-2.69-22.65,16.48,10.79,27.1,25.47,31.62,44.42s1.32,37-8.77,54.58c12.91-5,22-13,28.13-24.41s7.35-23.67,4.48-36.95c1.19,1.05,1.94,1.63,2.61,2.3q48,47.73,59.21,114.53a188.33,188.33,0,0,1,.83,59.33c-11.39,75.1-52.16,128.48-120.24,161.15-22.42,10.75-46.43,16.16-71.3,17.55a22.76,22.76,0,0,0-3.13.61Z"/></g></svg>